<?xml version="1.0" encoding="utf-8"?>
<!-- Generator: Adobe Illustrator 26.2.1, SVG Export Plug-In . SVG Version: 6.00 Build 0)  -->
<svg version="1.1" id="Layer_1" xmlns="http://www.w3.org/2000/svg" xmlns:xlink="http://www.w3.org/1999/xlink" x="0px" y="0px"
	 viewBox="0 0 384.4 59.91" style="enable-background:new 0 0 384.4 59.91;" xml:space="preserve">
<g id="Layer_1_00000132084387874009266020000016097158577475713182_">
</g>
<g id="Layer_2_00000082370805410491748710000001041435963664507792_">
	<path d="M4.34,14.12c0-6.88,0-8.14-0.09-9.59C4.17,2.99,3.83,2.26,2.41,1.95C2.06,1.86,1.33,1.81,0.73,1.81C0.26,1.81,0,1.72,0,1.4
		C0,1.09,0.3,1,0.95,1C3.23,1,5.94,1.14,6.8,1.14C8.9,1.13,10.58,1,12.04,1c7.78,0,9.16,4.39,9.16,6.79c0,3.71-2.02,5.93-4.39,7.92
		c3.53,1.27,7.83,4.48,7.83,9.77c0,4.84-3.57,9.86-11.48,9.86c-1.98,0-3.96-0.27-6.23-0.27c-1.72,0-3.48,0.14-5.42,0.14
		c-0.56,0-0.86-0.14-0.86-0.45c0-0.23,0.17-0.36,0.69-0.36c0.65,0,1.25-0.09,1.63-0.23c0.82-0.27,0.99-1.13,1.16-2.44
		c0.21-1.9,0.21-5.47,0.21-9.64C4.34,22.09,4.34,14.12,4.34,14.12z M9.5,14.89c0,0.36,0.13,0.45,0.3,0.5
		c0.39,0.09,1.03,0.14,2.02,0.14c1.42,0,2.37-0.18,3.1-0.86c1.12-0.95,1.76-2.58,1.76-4.8c0-3.03-1.68-7.01-5.38-7.01
		c-0.6,0-0.99,0-1.42,0.09C9.59,3.03,9.5,3.21,9.5,3.71V14.89z M9.5,21.04c0,2.13,0,5.11,0,7.37c0,2.99,0.13,3.75,1.5,4.34
		c1.16,0.5,2.15,0.54,3.14,0.54c1.94,0,5.2-1.09,5.2-5.79c0-2.81-0.9-6.61-4.17-9c-0.9-0.68-1.89-1-3.57-1.09
		c-0.77-0.05-1.2-0.05-1.85-0.05c-0.17,0-0.26,0.09-0.26,0.32v3.36H9.5z"/>
	<path d="M33.01,22.71c0,5.57,1.03,7.87,2.97,9.41c1.63,1.31,3.31,1.45,4.51,1.45c1.59,0,3.57-0.45,5.03-1.95
		c2.11-2.08,2.15-5.66,2.15-9.59v-4.8c0-5.79-0.09-6.74-0.13-7.96C47.46,7.96,47.25,7.33,46,7.1c-0.3-0.09-0.86-0.14-1.38-0.18
		c-0.43,0-0.65-0.14-0.65-0.41s0.22-0.41,0.82-0.41c1.93,0,4.34,0.14,4.47,0.14c0.52,0,2.88-0.14,4.43-0.14
		c0.56,0,0.82,0.14,0.82,0.41s-0.22,0.41-0.69,0.41c-0.43,0.05-0.65,0.05-1.12,0.18c-0.99,0.18-1.25,0.77-1.33,2.13
		c-0.09,1.22-0.13,2.22-0.13,8.01v4.07c0,4.3-0.39,8.87-3.65,11.67c-2.62,2.26-5.38,2.71-7.87,2.71c-2.24,0-5.85-0.23-8.51-2.67
		c-1.94-1.72-3.4-4.52-3.4-10.13v-5.66c0-5.88,0-6.79-0.09-8.05c-0.09-1.22-0.34-1.81-1.51-2.08c-0.34-0.09-1.03-0.14-1.55-0.18
		c-0.43,0-0.69-0.18-0.69-0.45s0.3-0.36,0.9-0.36c1.93,0,4.56,0.14,5.55,0.14c0.82,0,3.61-0.14,4.94-0.14c0.6,0,0.86,0.14,0.86,0.41
		s-0.26,0.41-0.65,0.41c-0.39,0.05-0.69,0.09-1.12,0.18c-1.03,0.18-1.33,0.86-1.38,2.17c-0.09,1.22-0.09,2.35-0.09,7.96v5.47H33.01z
		"/>
	<path d="M53.8,34.7c-0.6-0.27-0.73-0.54-0.73-1.31c0-2.31,0.13-4.57,0.17-5.25c0.04-0.63,0.17-1,0.47-1c0.34,0,0.39,0.32,0.43,0.63
		c0.04,0.5,0.04,1.18,0.26,1.81c0.77,2.94,3.14,4.16,5.59,4.16c3.44,0,4.99-2.22,4.99-4.21c0-1.81-0.52-3.53-3.7-5.97l-1.81-1.45
		c-4.26-3.39-5.63-5.97-5.63-9.14c0-4.25,3.48-7.42,8.86-7.42c1.72,0,2.75,0.23,3.83,0.41c0.6,0.09,1.12,0.23,1.55,0.27
		c0.34,0.05,0.43,0.23,0.43,0.5c0,0.63-0.17,1.72-0.17,4.8c0,0.86-0.13,1.18-0.43,1.18c-0.26,0-0.39-0.27-0.43-0.77
		s-0.3-1.58-0.86-2.44c-0.64-1.04-1.85-2.04-4.3-2.04c-2.84,0-4.47,1.63-4.47,3.85c0,1.67,0.77,3.17,3.87,5.38l1.2,0.86
		c4.82,3.44,6.36,6.11,6.36,9.77c0,2.35-0.95,5.02-3.7,6.83c-1.94,1.22-4.13,1.54-6.11,1.54C57.16,35.7,55.44,35.43,53.8,34.7z"/>
	<path d="M74.74,17.24c0-5.88,0-6.79-0.09-8.05c-0.09-1.27-0.47-1.9-1.29-2.08c-0.39-0.09-0.86-0.14-1.33-0.18
		c-0.39,0-0.6-0.14-0.6-0.45c0-0.23,0.26-0.36,0.86-0.36c1.51,0,4.08,0.14,5.03,0.14c0.86,0,3.4-0.14,4.86-0.14
		c0.52,0,0.73,0.14,0.73,0.36c0,0.32-0.21,0.45-0.6,0.45c-0.39,0.05-0.56,0.05-0.99,0.14c-1.03,0.18-1.33,0.86-1.42,2.17
		c-0.13,1.22-0.13,2.13-0.13,8.01v6.79c0,3.62,0.04,6.56,0.22,8.19c0.09,1.04,0.39,1.86,1.5,1.99c0.56,0.14,1.07,0.14,1.63,0.18
		c0.47,0,0.65,0.23,0.65,0.41c0,0.27-0.3,0.41-0.73,0.41c-2.54,0-4.99-0.14-5.89-0.14c-0.73,0-3.31,0.14-4.82,0.14
		c-0.52,0-0.77-0.14-0.77-0.41c0-0.18,0.17-0.41,0.65-0.41c0.52-0.05,0.82-0.05,1.16-0.14c0.73-0.18,1.08-0.86,1.16-1.95
		c0.21-1.63,0.21-4.52,0.21-8.28L74.74,17.24L74.74,17.24z"/>
	<path d="M122.65,17.24c0-5.88,0-6.92-0.09-8.19c-0.09-1.27-0.39-1.76-1.55-2.04c-0.34-0.09-0.95-0.09-1.46-0.14
		c-0.43,0-0.65-0.14-0.65-0.41s0.26-0.36,0.86-0.36c1.81,0,3.53,0.14,5.42,0.14c1.16,0,9.03,0,9.72-0.05
		c0.73-0.09,1.38-0.18,1.72-0.23c0.22-0.05,0.43-0.18,0.6-0.18c0.22,0,0.26,0.18,0.26,0.36c0,0.27-0.26,0.81-0.34,2.44
		c-0.04,0.72-0.09,1.49-0.17,2.67c0,0.23-0.09,0.63-0.43,0.63c-0.26,0-0.34-0.23-0.39-0.72c0-0.18,0-0.77-0.22-1.27
		c-0.26-0.72-0.6-1.13-2.45-1.36c-0.73-0.09-4.6-0.18-5.46-0.18c-0.17,0-0.26,0.14-0.26,0.41v9.37c0,0.27,0.04,0.41,0.26,0.41
		c0.9,0,5.03,0,5.98-0.05c1.07-0.09,1.63-0.23,1.98-0.63c0.26-0.36,0.43-0.5,0.6-0.5c0.17,0,0.26,0.09,0.26,0.32
		c0,0.27-0.17,1.13-0.3,2.99c0,0.77-0.13,2.4-0.13,2.71s-0.04,0.72-0.39,0.72c-0.26,0-0.39-0.41-0.39-0.63
		c-0.04-0.36-0.04-0.59-0.13-1.04c-0.22-0.86-0.65-1.45-2.15-1.58c-0.77-0.09-4.39-0.14-5.33-0.14c-0.21,0-0.26,0.18-0.26,0.41v2.94
		c0,1.31-0.04,4.48,0,5.66c0.09,2.67,0.65,3.26,4.6,3.26c0.99,0,2.58,0,3.53-0.45c0.99-0.5,1.42-1.27,1.72-2.9
		c0.09-0.41,0.17-0.63,0.47-0.63s0.3,0.36,0.3,0.77c0,1-0.3,3.76-0.52,4.52c-0.26,0.99-0.6,0.99-2.02,0.99
		c-3.74,0-6.97-0.23-10.79-0.23c-1.55,0-3.1,0.14-4.9,0.14c-0.52,0-0.77-0.14-0.77-0.41c0-0.18,0.13-0.41,0.65-0.41
		c0.52-0.05,0.99-0.05,1.33-0.14c0.77-0.18,0.99-1.04,1.12-2.4c0.17-1.58,0.17-4.52,0.17-7.83L122.65,17.24L122.65,17.24z"/>
	<path d="M140.17,34.7c-0.6-0.27-0.73-0.54-0.73-1.31c0-2.31,0.13-4.57,0.17-5.25c0.04-0.63,0.17-1,0.47-1
		c0.34,0,0.39,0.32,0.43,0.63c0.04,0.5,0.04,1.18,0.26,1.81c0.77,2.94,3.14,4.16,5.59,4.16c3.44,0,4.99-2.22,4.99-4.21
		c0-1.81-0.52-3.53-3.7-5.97l-1.81-1.45c-4.26-3.39-5.63-5.97-5.63-9.14c0-4.25,3.48-7.42,8.86-7.42c1.72,0,2.75,0.23,3.83,0.41
		c0.6,0.09,1.12,0.23,1.55,0.27c0.34,0.05,0.43,0.23,0.43,0.5c0,0.63-0.17,1.72-0.17,4.8c0,0.86-0.13,1.18-0.43,1.18
		c-0.26,0-0.39-0.27-0.43-0.77s-0.3-1.58-0.86-2.44c-0.64-1.04-1.85-2.04-4.3-2.04c-2.84,0-4.47,1.63-4.47,3.85
		c0,1.67,0.77,3.17,3.87,5.38l1.2,0.86c4.82,3.44,6.36,6.11,6.36,9.77c0,2.35-0.95,5.02-3.7,6.83c-1.94,1.22-4.13,1.54-6.11,1.54
		C143.52,35.7,141.8,35.43,140.17,34.7z"/>
	<path d="M158.74,34.7c-0.6-0.27-0.73-0.54-0.73-1.31c0-2.31,0.13-4.57,0.17-5.25c0.04-0.63,0.17-1,0.47-1
		c0.34,0,0.39,0.32,0.43,0.63c0.04,0.5,0.04,1.18,0.26,1.81c0.77,2.94,3.14,4.16,5.59,4.16c3.44,0,4.99-2.22,4.99-4.21
		c0-1.81-0.52-3.53-3.7-5.97l-1.81-1.45c-4.26-3.39-5.63-5.97-5.63-9.14c0-4.25,3.48-7.42,8.86-7.42c1.72,0,2.75,0.23,3.83,0.41
		c0.6,0.09,1.12,0.23,1.55,0.27c0.34,0.05,0.43,0.23,0.43,0.5c0,0.63-0.17,1.72-0.17,4.8c0,0.86-0.13,1.18-0.43,1.18
		c-0.26,0-0.39-0.27-0.43-0.77s-0.3-1.58-0.86-2.44c-0.65-1.04-1.85-2.04-4.3-2.04c-2.84,0-4.47,1.63-4.47,3.85
		c0,1.67,0.77,3.17,3.87,5.38l1.2,0.86c4.82,3.44,6.36,6.11,6.36,9.77c0,2.35-0.95,5.02-3.7,6.83c-1.94,1.22-4.13,1.54-6.11,1.54
		C162.1,35.7,160.38,35.43,158.74,34.7z"/>
	<path d="M195.27,23.39c-0.22,0-0.3,0.09-0.39,0.36l-2.32,6.47c-0.43,1.13-0.65,2.22-0.65,2.76c0,0.81,0.39,1.4,1.72,1.4
		c0.22,0,0.47,0,0.65,0c0.52,0,0.64,0.09,0.64,0.36c0,0.36-0.26,0.45-0.73,0.45c-1.38,0-3.23-0.14-4.56-0.14
		c-0.47,0-2.84,0.14-5.07,0.14c-0.56,0-0.82-0.09-0.82-0.45c0-0.27,0.26-0.36,0.6-0.36c0.39,0,0.9-0.05,1.25-0.09
		c1.98-0.27,2.79-1.81,3.65-4.07l10.79-28.41c0.52-1.31,0.82-1.81,1.2-1.81c0.34,0,0.64,0.41,1.08,1.45
		c1.03,2.49,7.91,20.95,10.66,27.82c1.63,4.07,2.88,4.71,3.78,4.93c0.65,0.14,1.29,0.18,1.81,0.18c0.34,0,0.56,0.09,0.56,0.36
		c0,0.36-0.39,0.45-1.98,0.45c-1.55,0-4.99,0-8.43-0.09c-0.77-0.05-0.99-0.09-0.99-0.36c0-0.23,0.17-0.36,0.6-0.41
		c0.3-0.09,0.6-0.5,0.39-1.04l-3.44-9.59c-0.09-0.23-0.21-0.32-0.43-0.32L195.27,23.39L195.27,23.39z M204.04,21.13
		c0.21,0,0.26-0.14,0.21-0.27l-3.87-11.17c-0.13-0.41-0.3-0.54-0.47,0l-3.96,11.13c-0.04,0.18,0,0.32,0.17,0.32h7.92V21.13z"/>
	<path d="M221.86,17.24c0-5.88,0-6.79-0.09-8.05c-0.09-1.27-0.47-1.9-1.29-2.08c-0.39-0.09-0.86-0.14-1.33-0.18
		c-0.39,0-0.6-0.14-0.6-0.45c0-0.23,0.26-0.36,0.86-0.36c1.51,0,4.08,0.14,5.03,0.14c0.86,0,3.4-0.14,4.86-0.14
		c0.52,0,0.73,0.14,0.73,0.36c0,0.32-0.21,0.45-0.6,0.45c-0.39,0.05-0.56,0.05-0.99,0.14c-1.03,0.18-1.33,0.86-1.42,2.17
		c-0.13,1.22-0.13,2.13-0.13,8.01v6.79c0,3.62,0.04,6.56,0.21,8.19c0.09,1.04,0.39,1.86,1.5,1.99c0.56,0.14,1.08,0.14,1.63,0.18
		c0.47,0,0.65,0.23,0.65,0.41c0,0.27-0.3,0.41-0.73,0.41c-2.54,0-4.99-0.14-5.89-0.14c-0.73,0-3.31,0.14-4.82,0.14
		c-0.52,0-0.77-0.14-0.77-0.41c0-0.18,0.17-0.41,0.64-0.41c0.52-0.05,0.82-0.05,1.16-0.14c0.73-0.18,1.08-0.86,1.16-1.95
		c0.21-1.63,0.21-4.52,0.21-8.28v-6.79H221.86z"/>
	<path d="M235.86,17.24c0-5.88,0-6.74-0.09-7.96c-0.09-1.36-0.43-1.94-1.59-2.17c-0.47-0.09-0.99-0.14-1.46-0.18
		c-0.43,0-0.64-0.14-0.64-0.41s0.26-0.41,0.82-0.41c1.94,0,4.56,0.14,5.29,0.14c1.16,0,4.21-0.14,5.5-0.14
		c2.58,0,5.12,0.27,7.05,1.58c1.2,0.81,2.79,2.76,2.79,5.38c0,2.9-1.29,5.47-5.03,8.41c3.18,4.16,5.85,7.74,8.08,10.13
		c2.06,2.31,3.48,2.49,4.17,2.67c0.39,0.05,0.69,0.05,0.99,0.09c0.34,0,0.52,0.18,0.52,0.36c0,0.32-0.26,0.45-0.73,0.45h-3.61
		c-2.49,0-3.57-0.27-4.64-0.86c-1.5-0.86-2.92-2.62-4.9-5.47c-1.55-2.26-3.14-4.66-3.7-5.34c-0.13-0.18-0.34-0.23-0.6-0.23
		l-3.05-0.09c-0.17,0-0.3,0.09-0.3,0.32v0.81c0,3.48,0,6.15,0.17,7.74c0.09,1.13,0.34,1.99,1.5,2.13c0.52,0.14,1.29,0.14,1.81,0.18
		c0.34,0,0.47,0.18,0.47,0.36c0,0.27-0.26,0.45-0.73,0.45c-2.28,0-5.29-0.14-5.85-0.14c-0.65,0-3.27,0.14-4.77,0.14
		c-0.47,0-0.73-0.14-0.73-0.41c0-0.18,0.17-0.41,0.6-0.41c0.56-0.05,1.03-0.05,1.38-0.14c0.73-0.18,0.99-1,1.08-2.17
		c0.21-1.58,0.21-4.48,0.21-8.05L235.86,17.24L235.86,17.24z M240.72,20.18c0,0.36,0.09,0.54,0.34,0.63
		c0.77,0.32,1.89,0.45,2.88,0.45c1.38,0,1.98-0.18,2.62-0.68c1.08-0.81,2.11-2.49,2.11-5.57c0-5.47-3.57-6.92-5.72-6.92
		c-0.9,0-1.59,0.05-1.93,0.18c-0.21,0.09-0.3,0.23-0.3,0.54V20.18z"/>
	<path d="M310.6,17.24c0-5.88,0-6.92-0.09-8.19c-0.09-1.27-0.39-1.76-1.55-2.04c-0.34-0.09-0.95-0.09-1.46-0.14
		c-0.43,0-0.64-0.14-0.64-0.41s0.26-0.36,0.86-0.36c1.81,0,3.53,0.14,5.42,0.14c1.16,0,9.03,0,9.72-0.05
		c0.73-0.09,1.38-0.18,1.72-0.23c0.21-0.05,0.43-0.18,0.6-0.18c0.21,0,0.26,0.18,0.26,0.36c0,0.27-0.26,0.81-0.34,2.44
		c-0.04,0.72-0.09,1.49-0.17,2.67c0,0.23-0.09,0.63-0.43,0.63c-0.26,0-0.34-0.23-0.39-0.72c0-0.18,0-0.77-0.21-1.27
		c-0.26-0.72-0.6-1.13-2.45-1.36c-0.73-0.09-4.6-0.18-5.46-0.18c-0.17,0-0.26,0.14-0.26,0.41v9.37c0,0.27,0.04,0.41,0.26,0.41
		c0.9,0,5.03,0,5.98-0.05c1.08-0.09,1.63-0.23,1.98-0.63c0.26-0.36,0.43-0.5,0.6-0.5s0.26,0.09,0.26,0.32c0,0.27-0.17,1.13-0.3,2.99
		c0,0.77-0.13,2.4-0.13,2.71s-0.04,0.72-0.39,0.72c-0.26,0-0.39-0.41-0.39-0.63c-0.04-0.36-0.04-0.59-0.13-1.04
		c-0.21-0.86-0.65-1.45-2.15-1.58c-0.77-0.09-4.39-0.14-5.33-0.14c-0.21,0-0.26,0.18-0.26,0.41v2.94c0,1.31-0.04,4.48,0,5.66
		c0.09,2.67,0.65,3.26,4.6,3.26c0.99,0,2.58,0,3.53-0.45c0.99-0.5,1.42-1.27,1.72-2.9c0.09-0.41,0.17-0.63,0.47-0.63
		s0.3,0.36,0.3,0.77c0,1-0.3,3.76-0.52,4.52c-0.26,0.99-0.6,0.99-2.02,0.99c-3.74,0-6.97-0.23-10.79-0.23c-1.55,0-3.1,0.14-4.9,0.14
		c-0.52,0-0.77-0.14-0.77-0.41c0-0.18,0.13-0.41,0.65-0.41c0.52-0.05,0.99-0.05,1.33-0.14c0.77-0.18,0.99-1.04,1.12-2.4
		c0.17-1.58,0.17-4.52,0.17-7.83v-6.76H310.6z"/>
	<path d="M331.08,10c-0.52-1.45-0.9-2.35-1.5-2.71c-0.43-0.27-1.12-0.32-1.46-0.36c-0.39,0-0.6-0.14-0.6-0.41s0.3-0.41,0.86-0.41
		c2.02,0,4.17,0.14,4.56,0.14c0.47,0,2.32-0.14,4.47-0.14c0.52,0,0.77,0.18,0.77,0.41c0,0.27-0.26,0.41-0.65,0.41
		c-0.34,0.05-0.52,0.05-0.95,0.18c-0.34,0.09-0.47,0.41-0.47,0.81c0,0.5,0.39,1.67,0.86,3.44c0.6,2.31,4,13.44,4.82,15.93
		l7.27-19.64c0.39-1.09,0.69-1.4,0.99-1.4c0.39,0,0.6,0.59,1.12,1.81l7.87,19.05c0.82-2.85,3.66-12.31,4.9-16.69
		c0.3-1,0.43-1.72,0.43-2.26c0-0.68-0.34-1.22-1.89-1.22c-0.34,0-0.65-0.18-0.65-0.41s0.26-0.41,0.86-0.41
		c2.06,0,3.74,0.14,4.08,0.14c0.26,0,2.06-0.14,3.35-0.14c0.43,0,0.69,0.18,0.69,0.41c0,0.27-0.21,0.41-0.52,0.41
		c-0.39,0.05-0.9,0.05-1.33,0.23c-0.95,0.32-1.38,1.63-2.19,3.94c-1.76,4.8-5.63,16.7-7.65,22.71c-0.47,1.36-0.69,1.9-1.16,1.9
		c-0.43,0-0.64-0.5-1.25-1.85L348.84,15c-0.9,2.44-5.63,15.02-7.27,18.69c-0.69,1.54-0.95,2.04-1.42,2.04
		c-0.43,0-0.6-0.45-0.99-1.58L331.08,10z"/>
	<path d="M368.51,34.7c-0.6-0.27-0.73-0.54-0.73-1.31c0-2.31,0.13-4.57,0.17-5.25c0.04-0.63,0.17-1,0.47-1
		c0.34,0,0.39,0.32,0.43,0.63c0.04,0.5,0.04,1.18,0.26,1.81c0.77,2.94,3.14,4.16,5.59,4.16c3.44,0,4.99-2.22,4.99-4.21
		c0-1.81-0.52-3.53-3.7-5.97l-1.81-1.45c-4.26-3.39-5.63-5.97-5.63-9.14c0-4.25,3.48-7.42,8.86-7.42c1.72,0,2.75,0.23,3.83,0.41
		c0.6,0.09,1.12,0.23,1.55,0.27c0.34,0.05,0.43,0.23,0.43,0.5c0,0.63-0.17,1.72-0.17,4.8c0,0.86-0.13,1.18-0.43,1.18
		c-0.26,0-0.39-0.27-0.43-0.77c-0.04-0.5-0.3-1.58-0.86-2.44c-0.65-1.04-1.85-2.04-4.3-2.04c-2.84,0-4.47,1.63-4.47,3.85
		c0,1.67,0.77,3.17,3.87,5.38l1.2,0.86c4.82,3.44,6.36,6.11,6.36,9.77c0,2.35-0.95,5.02-3.7,6.83c-1.93,1.22-4.13,1.54-6.11,1.54
		C371.87,35.7,370.15,35.43,368.51,34.7z"/>
	<g>
		<path d="M276.01,1.77c0-0.91,0.23-0.96,0.66-0.96c0.47,0,0.75,0.01,1.49,0.82c0.52,0.59,7.05,7.96,13.33,14.52
			c2.92,3.08,8.94,9.82,9.67,10.54l-0.43-20.54c-0.04-2.76-0.43-3.62-1.46-4.07c-0.65-0.27-1.68-0.27-2.28-0.27
			c-0.52,0-0.69-0.14-0.69-0.41c0-0.36,0.47-0.41,1.12-0.41c2.24,0,4.3,0.14,5.2,0.14c0.47,0,2.11-0.14,4.21-0.14
			c0.56,0,0.99,0.05,0.99,0.41c0,0.27-0.26,0.41-0.77,0.41c-0.43,0-0.77,0-1.29,0.14c-1.2,0.36-1.55,1.31-1.59,3.85
			c-0.17,9.55-0.3,19-0.47,28.55c0,0.99-0.17,1.4-0.56,1.4c-0.47,0-0.99-0.5-1.46-1c-2.71-2.71-8.21-8.64-12.68-13.3
			c-4.69-4.89-9.59-10.68-10.36-11.54l0.47,19.14c0.09,3.53,0.64,4.71,1.5,5.02c0.73,0.27,1.55,0.32,2.24,0.32
			c0.47,0,0.73,0.09,0.73,0.36c0,0.36-0.39,0.45-0.99,0.45c-2.79,0-4.51-0.14-5.33-0.14c-0.39,0-2.41,0.14-4.64,0.14
			c-0.56,0-0.95-0.05-0.95-0.45c0-0.27,0.26-0.36,0.69-0.36c0.56,0,1.33-0.05,1.93-0.23c1.12-0.36,1.29-1.67,1.33-5.61
			C275.75,18.96,275.93,7.78,276.01,1.77z"/>
		<path d="M273.92,2.06c0.5,0,2.04-0.17,2.08,0.65c0.01,0.22,0.38-0.27,0.39-0.27c0.19-0.04-0.18-0.08,0.01-0.12
			c0.26-0.02,0.51,0.02,0.76,0.1c0.02-0.08,0.05-0.17,0.07-0.25c0.07-0.29-0.01-0.1,0.1-0.93c-0.45-0.42,0-0.52-2.45-0.38
			c-0.54,0.03-1.5-0.07-1.5,0.42C273.39,1.66,273.49,2.06,273.92,2.06z"/>
	</g>
	<g>
		<path d="M89.76,6.92c0-0.77,0.2-0.81,0.56-0.81c0.4,0,0.64,0,1.26,0.69c0.44,0.5,5.97,6.74,11.28,12.29
			c2.47,2.6,7.57,8.31,8.19,8.92l-0.36-17.38c-0.04-2.34-0.36-3.06-1.24-3.44c-0.55-0.23-1.42-0.23-1.93-0.23
			c-0.44,0-0.58-0.11-0.58-0.35c0-0.31,0.4-0.34,0.95-0.34c1.89,0,3.64,0.11,4.4,0.11c0.4,0,1.78-0.11,3.57-0.11
			c0.47,0,0.84,0.04,0.84,0.34c0,0.23-0.22,0.35-0.66,0.35c-0.36,0-0.65,0-1.09,0.11c-1.02,0.31-1.31,1.11-1.35,3.25
			c-0.15,8.08-0.25,16.08-0.4,24.16c0,0.84-0.15,1.19-0.47,1.19c-0.4,0-0.84-0.42-1.24-0.84c-2.29-2.3-6.95-7.31-10.73-11.25
			c-3.97-4.13-8.11-9.03-8.77-9.76L92.38,30c0.07,2.99,0.55,3.98,1.27,4.25c0.62,0.23,1.31,0.27,1.89,0.27
			c0.4,0,0.62,0.08,0.62,0.31c0,0.31-0.33,0.38-0.84,0.38c-2.36,0-3.82-0.11-4.51-0.11c-0.33,0-2.04,0.11-3.93,0.11
			c-0.47,0-0.8-0.04-0.8-0.38c0-0.23,0.22-0.31,0.58-0.31c0.47,0,1.13-0.04,1.64-0.19c0.95-0.31,1.09-1.42,1.13-4.75
			C89.54,21.46,89.69,12.01,89.76,6.92z"/>
		<path d="M87.99,7.17c0.43,0,1.73-0.14,1.76,0.55c0.01,0.19,0.32-0.23,0.33-0.23c0.16-0.03-0.15-0.07,0.01-0.1
			c0.22-0.01,0.43,0.02,0.64,0.08c0.02-0.07,0.04-0.14,0.06-0.21c0.06-0.24,0-0.09,0.08-0.78c-0.38-0.35,0-0.44-2.07-0.32
			c-0.46,0.03-1.27-0.06-1.27,0.35C87.54,6.83,87.63,7.17,87.99,7.17z"/>
	</g>
</g>
<g>
	<path d="M5.72,56.14H4.57v-8.9H1.42v-1.02h7.44v1.02H5.72V56.14z"/>
	<path d="M17.89,56.14h-1.15v-4.67h-5.23v4.67h-1.15v-9.92h1.15v4.22h5.23v-4.22h1.15V56.14z"/>
	<path d="M26.14,56.14h-5.53v-9.92h5.53v1.02h-4.38v3.2h4.11v1.02h-4.11v3.65h4.38V56.14z"/>
	<path d="M40.61,56.14h-1.14l-2-6.64c-0.09-0.29-0.2-0.67-0.32-1.11s-0.18-0.72-0.18-0.81c-0.1,0.6-0.26,1.25-0.48,1.96l-1.94,6.6
		h-1.14l-2.64-9.92h1.22l1.57,6.13c0.22,0.86,0.38,1.64,0.48,2.33c0.12-0.83,0.3-1.64,0.54-2.43l1.78-6.03h1.22l1.87,6.09
		c0.22,0.7,0.4,1.49,0.55,2.38c0.09-0.64,0.25-1.42,0.49-2.35l1.56-6.11h1.22L40.61,56.14z"/>
	<path d="M53.43,51.17c0,1.59-0.4,2.84-1.2,3.75s-1.92,1.36-3.35,1.36c-1.46,0-2.59-0.45-3.38-1.34c-0.79-0.89-1.19-2.15-1.19-3.78
		c0-1.62,0.4-2.87,1.19-3.76c0.8-0.89,1.93-1.33,3.39-1.33c1.43,0,2.54,0.45,3.34,1.36C53.03,48.32,53.43,49.57,53.43,51.17z
		 M45.52,51.17c0,1.34,0.29,2.36,0.86,3.06s1.4,1.04,2.49,1.04c1.1,0,1.93-0.35,2.49-1.04s0.84-1.71,0.84-3.06
		c0-1.33-0.28-2.35-0.84-3.04c-0.56-0.69-1.39-1.03-2.48-1.03c-1.1,0-1.94,0.35-2.51,1.04C45.81,48.83,45.52,49.84,45.52,51.17z"/>
	<path d="M56.79,52.01v4.13h-1.15v-9.92h2.72c1.22,0,2.12,0.23,2.7,0.7c0.58,0.47,0.87,1.17,0.87,2.1c0,1.31-0.67,2.2-2,2.66
		l2.69,4.46h-1.36l-2.4-4.13H56.79z M56.79,51.02h1.58c0.81,0,1.41-0.16,1.79-0.49c0.38-0.32,0.57-0.81,0.57-1.46
		c0-0.66-0.19-1.13-0.58-1.42c-0.39-0.29-1.01-0.43-1.86-0.43h-1.5V51.02z"/>
	<path d="M64.23,56.14v-9.92h1.15v8.88h4.38v1.04H64.23z"/>
	<path d="M79.37,51.08c0,1.64-0.44,2.89-1.33,3.76c-0.89,0.87-2.17,1.3-3.84,1.3h-2.75v-9.92h3.04c1.54,0,2.74,0.43,3.6,1.28
		C78.94,48.36,79.37,49.55,79.37,51.08z M78.14,51.12c0-1.29-0.32-2.27-0.97-2.92c-0.65-0.66-1.61-0.98-2.89-0.98H72.6v7.93H74
		c1.38,0,2.41-0.34,3.1-1.01C77.8,53.45,78.14,52.45,78.14,51.12z"/>
	<path d="M82.31,46.22l0.1,0.15c-0.12,0.45-0.29,0.98-0.51,1.58s-0.45,1.16-0.69,1.67h-0.83c0.32-1.29,0.55-2.42,0.69-3.4H82.31z"/>
	<path d="M89.54,53.5c0,0.87-0.32,1.55-0.95,2.04c-0.63,0.49-1.49,0.73-2.58,0.73c-1.18,0-2.08-0.15-2.71-0.46v-1.11
		c0.41,0.17,0.85,0.31,1.33,0.41s0.95,0.15,1.43,0.15c0.77,0,1.35-0.15,1.74-0.44s0.58-0.7,0.58-1.22c0-0.34-0.07-0.63-0.21-0.84
		c-0.14-0.22-0.37-0.42-0.69-0.61c-0.32-0.19-0.82-0.4-1.48-0.63c-0.92-0.33-1.58-0.72-1.98-1.17c-0.4-0.45-0.59-1.04-0.59-1.77
		c0-0.76,0.29-1.37,0.86-1.83c0.57-0.45,1.33-0.68,2.28-0.68c0.99,0,1.89,0.18,2.72,0.54l-0.36,1c-0.82-0.34-1.62-0.52-2.39-0.52
		c-0.61,0-1.09,0.13-1.43,0.39c-0.34,0.26-0.52,0.63-0.52,1.09c0,0.34,0.06,0.63,0.19,0.85c0.13,0.22,0.34,0.42,0.64,0.6
		c0.3,0.18,0.76,0.39,1.38,0.61c1.04,0.37,1.76,0.77,2.15,1.19C89.34,52.27,89.54,52.82,89.54,53.5z"/>
	<path d="M95.18,56.14v-9.92h1.15v8.88h4.38v1.04H95.18z"/>
	<path d="M107.92,56.14h-5.53v-9.92h5.53v1.02h-4.38v3.2h4.11v1.02h-4.11v3.65h4.38V56.14z"/>
	<path d="M116.36,56.14l-1.23-3.16h-3.98l-1.22,3.16h-1.17l3.92-9.96h0.97l3.9,9.96H116.36z M114.76,51.95l-1.15-3.07
		c-0.15-0.39-0.3-0.87-0.46-1.43c-0.1,0.43-0.24,0.91-0.43,1.43l-1.17,3.07H114.76z"/>
	<path d="M126.84,51.08c0,1.64-0.44,2.89-1.33,3.76c-0.89,0.87-2.17,1.3-3.84,1.3h-2.75v-9.92h3.04c1.54,0,2.74,0.43,3.6,1.28
		C126.41,48.36,126.84,49.55,126.84,51.08z M125.62,51.12c0-1.29-0.32-2.27-0.97-2.92c-0.65-0.66-1.61-0.98-2.89-0.98h-1.68v7.93
		h1.4c1.38,0,2.41-0.34,3.1-1.01C125.27,53.45,125.62,52.45,125.62,51.12z"/>
	<path d="M129.05,56.14v-9.92h1.15v9.92H129.05z"/>
	<path d="M140.67,56.14h-1.32l-5.42-8.33h-0.05c0.07,0.98,0.11,1.87,0.11,2.69v5.64h-1.07v-9.92h1.3l5.41,8.29h0.05
		c-0.01-0.12-0.03-0.51-0.06-1.18c-0.03-0.66-0.04-1.14-0.03-1.42v-5.69h1.08V56.14z"/>
	<path d="M147.77,50.94h3.37v4.83c-0.52,0.17-1.06,0.29-1.6,0.38s-1.17,0.13-1.89,0.13c-1.5,0-2.67-0.45-3.51-1.34
		c-0.84-0.89-1.26-2.15-1.26-3.76c0-1.03,0.21-1.94,0.62-2.71c0.41-0.78,1.01-1.37,1.79-1.78c0.78-0.41,1.69-0.61,2.73-0.61
		c1.06,0,2.05,0.19,2.96,0.58l-0.45,1.02c-0.9-0.38-1.76-0.57-2.59-0.57c-1.21,0-2.15,0.36-2.83,1.08
		c-0.68,0.72-1.02,1.72-1.02,2.99c0,1.34,0.33,2.35,0.98,3.05s1.61,1.04,2.88,1.04c0.69,0,1.36-0.08,2.02-0.24v-3.05h-2.22V50.94z"
		/>
	<path d="M157.13,46.22h2.8c1.32,0,2.27,0.2,2.86,0.59c0.59,0.39,0.88,1.02,0.88,1.87c0,0.59-0.16,1.07-0.49,1.46
		c-0.33,0.38-0.81,0.63-1.44,0.74v0.07c1.51,0.26,2.26,1.05,2.26,2.38c0,0.89-0.3,1.58-0.9,2.08c-0.6,0.5-1.44,0.75-2.51,0.75h-3.46
		V46.22z M158.29,50.47h1.9c0.81,0,1.4-0.13,1.76-0.38s0.54-0.69,0.54-1.29c0-0.56-0.2-0.96-0.6-1.21c-0.4-0.25-1.03-0.37-1.9-0.37
		h-1.7V50.47z M158.29,51.44v3.71h2.07c0.8,0,1.4-0.15,1.81-0.46c0.41-0.31,0.61-0.79,0.61-1.46c0-0.62-0.21-1.07-0.62-1.36
		c-0.41-0.29-1.04-0.43-1.89-0.43H158.29z"/>
	<path d="M173.63,46.22v6.42c0,1.13-0.34,2.02-1.02,2.67c-0.68,0.65-1.62,0.97-2.82,0.97s-2.12-0.33-2.77-0.98s-0.98-1.55-0.98-2.69
		v-6.39h1.15v6.47c0,0.83,0.23,1.46,0.68,1.91c0.45,0.44,1.12,0.67,2,0.67c0.84,0,1.48-0.22,1.93-0.67s0.68-1.08,0.68-1.92v-6.46
		H173.63z"/>
	<path d="M181.85,53.5c0,0.87-0.32,1.55-0.95,2.04c-0.63,0.49-1.49,0.73-2.58,0.73c-1.18,0-2.08-0.15-2.71-0.46v-1.11
		c0.41,0.17,0.85,0.31,1.33,0.41s0.95,0.15,1.43,0.15c0.77,0,1.35-0.15,1.74-0.44s0.58-0.7,0.58-1.22c0-0.34-0.07-0.63-0.21-0.84
		c-0.14-0.22-0.37-0.42-0.69-0.61c-0.32-0.19-0.82-0.4-1.48-0.63c-0.92-0.33-1.58-0.72-1.98-1.17c-0.4-0.45-0.59-1.04-0.59-1.77
		c0-0.76,0.29-1.37,0.86-1.83c0.57-0.45,1.33-0.68,2.28-0.68c0.99,0,1.89,0.18,2.72,0.54l-0.36,1c-0.82-0.34-1.62-0.52-2.39-0.52
		c-0.61,0-1.09,0.13-1.43,0.39c-0.34,0.26-0.52,0.63-0.52,1.09c0,0.34,0.06,0.63,0.19,0.85c0.13,0.22,0.34,0.42,0.64,0.6
		c0.3,0.18,0.76,0.39,1.38,0.61c1.04,0.37,1.76,0.77,2.15,1.19C181.66,52.27,181.85,52.82,181.85,53.5z"/>
	<path d="M183.88,56.14v-9.92h1.15v9.92H183.88z"/>
	<path d="M195.51,56.14h-1.32l-5.42-8.33h-0.05c0.07,0.98,0.11,1.87,0.11,2.69v5.64h-1.07v-9.92h1.3l5.41,8.29h0.05
		c-0.01-0.12-0.03-0.51-0.06-1.18c-0.03-0.66-0.04-1.14-0.04-1.42v-5.69h1.08V56.14z"/>
	<path d="M203.77,56.14h-5.53v-9.92h5.53v1.02h-4.38v3.2h4.11v1.02h-4.11v3.65h4.38V56.14z"/>
	<path d="M211.57,53.5c0,0.87-0.32,1.55-0.95,2.04c-0.63,0.49-1.49,0.73-2.58,0.73c-1.18,0-2.08-0.15-2.71-0.46v-1.11
		c0.41,0.17,0.85,0.31,1.33,0.41s0.95,0.15,1.42,0.15c0.77,0,1.35-0.15,1.74-0.44s0.58-0.7,0.58-1.22c0-0.34-0.07-0.63-0.21-0.84
		c-0.14-0.22-0.37-0.42-0.69-0.61s-0.82-0.4-1.48-0.63c-0.92-0.33-1.58-0.72-1.98-1.17c-0.4-0.45-0.59-1.04-0.59-1.77
		c0-0.76,0.29-1.37,0.86-1.83c0.58-0.45,1.33-0.68,2.28-0.68c0.99,0,1.89,0.18,2.72,0.54l-0.36,1c-0.82-0.34-1.62-0.52-2.39-0.52
		c-0.61,0-1.09,0.13-1.43,0.39c-0.34,0.26-0.52,0.63-0.52,1.09c0,0.34,0.06,0.63,0.19,0.85c0.13,0.22,0.34,0.42,0.64,0.6
		s0.76,0.39,1.38,0.61c1.04,0.37,1.76,0.77,2.15,1.19C211.37,52.27,211.57,52.82,211.57,53.5z"/>
	<path d="M219.19,53.5c0,0.87-0.32,1.55-0.95,2.04c-0.63,0.49-1.49,0.73-2.58,0.73c-1.18,0-2.08-0.15-2.71-0.46v-1.11
		c0.41,0.17,0.85,0.31,1.33,0.41s0.95,0.15,1.42,0.15c0.77,0,1.35-0.15,1.74-0.44s0.58-0.7,0.58-1.22c0-0.34-0.07-0.63-0.21-0.84
		c-0.14-0.22-0.37-0.42-0.69-0.61s-0.82-0.4-1.48-0.63c-0.92-0.33-1.58-0.72-1.98-1.17c-0.4-0.45-0.59-1.04-0.59-1.77
		c0-0.76,0.29-1.37,0.86-1.83c0.58-0.45,1.33-0.68,2.28-0.68c0.99,0,1.89,0.18,2.72,0.54l-0.36,1c-0.82-0.34-1.62-0.52-2.39-0.52
		c-0.61,0-1.09,0.13-1.43,0.39c-0.34,0.26-0.52,0.63-0.52,1.09c0,0.34,0.06,0.63,0.19,0.85c0.13,0.22,0.34,0.42,0.64,0.6
		s0.76,0.39,1.38,0.61c1.04,0.37,1.76,0.77,2.15,1.19C219,52.27,219.19,52.82,219.19,53.5z"/>
	<path d="M231.07,56.14l-1.24-3.16h-3.98l-1.22,3.16h-1.17l3.92-9.96h0.97l3.9,9.96H231.07z M229.47,51.95l-1.15-3.07
		c-0.15-0.39-0.3-0.87-0.46-1.43c-0.1,0.43-0.24,0.91-0.43,1.43l-1.17,3.07H229.47z"/>
	<path d="M239.29,46.22h1.24l-3.58,9.92h-1.14l-3.56-9.92h1.22l2.28,6.42c0.26,0.74,0.47,1.46,0.62,2.15
		c0.16-0.73,0.38-1.46,0.64-2.19L239.29,46.22z"/>
	<path d="M241.9,56.14v-9.92h1.15v9.92H241.9z"/>
	<path d="M252.01,56.14l-1.24-3.16h-3.98l-1.22,3.16h-1.17l3.92-9.96h0.97l3.9,9.96H252.01z M250.42,51.95l-1.15-3.07
		c-0.15-0.39-0.3-0.87-0.46-1.43c-0.1,0.43-0.24,0.91-0.43,1.43l-1.17,3.07H250.42z"/>
	<path d="M257.62,56.14h-1.15v-8.9h-3.14v-1.02h7.44v1.02h-3.14V56.14z"/>
	<path d="M262.26,56.14v-9.92h1.15v9.92H262.26z"/>
	<path d="M274.75,51.17c0,1.59-0.4,2.84-1.2,3.75s-1.92,1.36-3.35,1.36c-1.46,0-2.59-0.45-3.38-1.34c-0.79-0.89-1.19-2.15-1.19-3.78
		c0-1.62,0.4-2.87,1.19-3.76c0.8-0.89,1.93-1.33,3.39-1.33c1.43,0,2.54,0.45,3.34,1.36C274.35,48.32,274.75,49.57,274.75,51.17z
		 M266.84,51.17c0,1.34,0.29,2.36,0.86,3.06c0.57,0.69,1.4,1.04,2.49,1.04c1.1,0,1.93-0.35,2.49-1.04c0.56-0.69,0.84-1.71,0.84-3.06
		c0-1.33-0.28-2.35-0.84-3.04c-0.56-0.69-1.38-1.03-2.48-1.03c-1.1,0-1.93,0.35-2.51,1.04C267.13,48.83,266.84,49.84,266.84,51.17z"
		/>
	<path d="M284.71,56.14h-1.32l-5.42-8.33h-0.05c0.07,0.98,0.11,1.87,0.11,2.69v5.64h-1.07v-9.92h1.3l5.41,8.29h0.05
		c-0.01-0.12-0.03-0.51-0.06-1.18c-0.03-0.66-0.04-1.14-0.03-1.42v-5.69h1.08V56.14z"/>
	<path d="M295.44,56.14l-3.37-8.79h-0.05c0.06,0.7,0.09,1.52,0.09,2.48v6.31h-1.07v-9.92h1.74l3.14,8.18h0.05l3.17-8.18h1.72v9.92
		h-1.15v-6.39c0-0.73,0.03-1.53,0.09-2.39h-0.05l-3.39,8.78H295.44z"/>
	<path d="M309.13,56.14h-5.53v-9.92h5.53v1.02h-4.38v3.2h4.11v1.02h-4.11v3.65h4.38V56.14z"/>
	<path d="M319.25,51.08c0,1.64-0.45,2.89-1.33,3.76s-2.17,1.3-3.84,1.3h-2.75v-9.92h3.04c1.54,0,2.74,0.43,3.6,1.28
		C318.82,48.36,319.25,49.55,319.25,51.08z M318.02,51.12c0-1.29-0.33-2.27-0.97-2.92c-0.65-0.66-1.61-0.98-2.89-0.98h-1.68v7.93
		h1.41c1.38,0,2.41-0.34,3.1-1.01C317.68,53.45,318.02,52.45,318.02,51.12z"/>
	<path d="M321.46,56.14v-9.92h1.15v9.92H321.46z"/>
	<path d="M331.57,56.14l-1.24-3.16h-3.98l-1.22,3.16h-1.17l3.92-9.96h0.97l3.9,9.96H331.57z M329.98,51.95l-1.15-3.07
		c-0.15-0.39-0.3-0.87-0.46-1.43c-0.1,0.43-0.24,0.91-0.43,1.43l-1.17,3.07H329.98z"/>
	<path d="M342.1,50.94h3.37v4.83c-0.52,0.17-1.06,0.29-1.6,0.38s-1.17,0.13-1.89,0.13c-1.5,0-2.67-0.45-3.51-1.34
		c-0.84-0.89-1.25-2.15-1.25-3.76c0-1.03,0.21-1.94,0.62-2.71c0.41-0.78,1.01-1.37,1.79-1.78c0.78-0.41,1.69-0.61,2.73-0.61
		c1.06,0,2.04,0.19,2.96,0.58l-0.45,1.02c-0.9-0.38-1.76-0.57-2.58-0.57c-1.21,0-2.15,0.36-2.83,1.08
		c-0.68,0.72-1.02,1.72-1.02,2.99c0,1.34,0.33,2.35,0.98,3.05c0.65,0.69,1.61,1.04,2.88,1.04c0.69,0,1.36-0.08,2.02-0.24v-3.05
		h-2.22V50.94z"/>
	<path d="M349.01,52.01v4.13h-1.15v-9.92h2.72c1.22,0,2.12,0.23,2.7,0.7c0.58,0.47,0.87,1.17,0.87,2.1c0,1.31-0.67,2.2-2,2.66
		l2.69,4.46h-1.36l-2.4-4.13H349.01z M349.01,51.02h1.58c0.81,0,1.41-0.16,1.79-0.49c0.38-0.32,0.57-0.81,0.57-1.46
		c0-0.66-0.19-1.13-0.58-1.42c-0.39-0.29-1.01-0.43-1.86-0.43h-1.5V51.02z"/>
	<path d="M365.06,51.17c0,1.59-0.4,2.84-1.2,3.75s-1.92,1.36-3.35,1.36c-1.46,0-2.59-0.45-3.38-1.34c-0.79-0.89-1.19-2.15-1.19-3.78
		c0-1.62,0.4-2.87,1.19-3.76c0.8-0.89,1.93-1.33,3.39-1.33c1.43,0,2.54,0.45,3.34,1.36C364.66,48.32,365.06,49.57,365.06,51.17z
		 M357.16,51.17c0,1.34,0.29,2.36,0.86,3.06c0.57,0.69,1.4,1.04,2.49,1.04c1.1,0,1.93-0.35,2.49-1.04c0.56-0.69,0.84-1.71,0.84-3.06
		c0-1.33-0.28-2.35-0.84-3.04c-0.56-0.69-1.38-1.03-2.48-1.03c-1.1,0-1.93,0.35-2.51,1.04C357.44,48.83,357.16,49.84,357.16,51.17z"
		/>
	<path d="M374.77,46.22v6.42c0,1.13-0.34,2.02-1.02,2.67c-0.68,0.65-1.62,0.97-2.82,0.97c-1.2,0-2.12-0.33-2.77-0.98
		c-0.65-0.65-0.98-1.55-0.98-2.69v-6.39h1.15v6.47c0,0.83,0.23,1.46,0.68,1.91s1.12,0.67,2,0.67c0.84,0,1.48-0.22,1.93-0.67
		c0.45-0.45,0.68-1.08,0.68-1.92v-6.46H374.77z"/>
	<path d="M383.68,49.11c0,1-0.34,1.78-1.03,2.32c-0.69,0.54-1.67,0.81-2.94,0.81h-1.17v3.9h-1.15v-9.92h2.57
		C382.44,46.22,383.68,47.18,383.68,49.11z M378.55,51.25h1.04c1.02,0,1.76-0.17,2.22-0.5s0.69-0.86,0.69-1.59
		c0-0.66-0.21-1.14-0.64-1.47c-0.43-0.32-1.1-0.48-2.01-0.48h-1.29V51.25z"/>
</g>
</svg>
